<svg xmlns="http://www.w3.org/2000/svg" height="800" width="600" version="1.1"
     xmlns:xlink="http://www.w3.org/1999/xlink">
    <defs>
<path id="chanceflurries" d="m42.732,50.287,3.955,5.841,7.365,0,3.398-5.841-3.58-6.22-7.379,0zm3.033,46.974,0-13.207-7.379,4.15-3.759-2.152,0-4.653,10.943-6.22,0-8.68-7.939,5.102,0-9.196-7.589,4.374,0,12.468-4.151,2.572-3.508-2.321,0-8.356-11.518,6.498-4.919-2.07,0-5.27,12.089-6.609-7.561-3.801,0-4.822,4.291-2.349,10.845,6.386,7.533-4.346-0.182-0.139-7.701-4.417,7.477-4.64-7.505-4.346-10.844,6.372-4.068-2.026,0-4.808,7.339-4.123-11.713-6.36,0-5.269,4.5-2.319,11.544,6.666,0-8.497,3.48-2.348,4.264,2.46-0.028,12.718,7.756,4.43-0.027-8.986,8.134,4.375,0-8.68-10.943-6.233,0-4.612,3.759-2.18,7.379,4.151,0-13.18,4.222-2.768,4.261,2.768,0,13.18,7.646-4.235,3.845,2.544,0,4.151-11.322,6.414,0,8.68,7.744-4.724,0,9.448,7.979-4.348,0-13.598,3.844-1.789,4.038,1.789,0,8.694,11.879-6.416,4.153,2.53,0,4.919-11.601,6.597,7.254,4.066,0,4.697-3.76,2.083-11.138-6.583-7.702,4.892,7.449,4.642-7.673,4.416,7.926,4.15,11.138-6.221,3.578,2.53,0,4.487-6.988,3.927,11.126,6.61,0,5.188-4.71,2.152-10.931-6.221,0,8.232-3.927,2.194-3.843-2.194,0-12.496-8.092-4.611,0,8.68-7.744-4.725,0,8.68,10.944,6.22,0,4.92-3.776,1.886-7.337-4.15,0,13.207-4.26,2.738z"/>
<path id="chancerain" d="M51.188,6.8125c-12.627,0-22.762,10.028-23.5,22.468-6.17,0.593-10.961,5.238-12.063,11.25-0.362-0.038-0.648-0.156-1.031-0.156-6.7074,0-12.219,5.485-12.219,12.187,0,3.353,1.5923,6.174,3.9375,7.75,2.3476,1.577,5.2555,2.094,8.2815,2.094h31.156,16.969,15.625c10.619,0,19.281-8.66,19.281-19.281s-8.66-19.281-19.281-19.281c-1.612,0-3.065,0.434-4.532,0.812-2.683-10.171-11.627-17.844-22.624-17.844zm0,4.5315c9.607,0,17.453,7.119,18.906,16.312l0.437,2.75,2.625-1.062c1.65-0.626,3.378-0.938,5.188-0.938,8.171,0,14.75,6.55,14.75,14.719,0,8.171-6.579,14.719-14.75,14.719h-15.625-16.969-31.156c-2.455,0-4.507-0.508-5.7502-1.344-1.2429-0.833-1.9376-1.809-1.9376-3.938,0-4.249,3.4328-7.656,7.6878-7.656,0.705,0,1.37,0.14,2.156,0.375l2.969,0.907v-3.063c0-0.14-0.056-0.14-0.063-0.219,0-0.128-0.012-0.127,0-0.156-0.002-0.012,0.002-0.058,0-0.062,0.119-5.058,4.196-9.094,9.282-9.094-0.074,0,0.173,0.058,0.687,0.094l2.531,0.124-0.094-2.531c-0.028-0.621-0.156-0.801-0.156-0.656,0-10.645,8.629-19.281,19.282-19.281zm-27.719,57.125l-9.031,24.781,1.937,0.719,9.313-25.5h-2.219zm17.219,0l-9.032,24.781,1.938,0.719,9.281-25.5h-2.187zm17.218,0l-9.031,24.781,1.937,0.719,9.282-25.5h-2.188zm17.188,0l-9,24.781,1.937,0.719,9.281-25.5h-2.218z"/>
<path id="chancesleet" d="M25.5,2l-2.25,1.4688v7.0312l-3.938-2.1875-2,1.1563v2.4692l5.844,3.312v4.625l-4.344-2.313v4.782l-4.124-2.375v-6.781l-2.25-1.313-1.876,1.25v4.531l-6.1558-3.531-2.4062,1.219v2.812l6.25,3.406-3.9062,2.188v2.562l2.1562,1.094,5.781-3.406,4.031,2.312-4,2.5,4.126,2.344,0.093,0.094-4.031,2.312-5.7812-3.406-2.3126,1.25v2.563l4.0626,2.031-6.4688,3.531v2.813l2.625,1.094,6.156-3.469v4.469l1.875,1.25,2.219-1.376v-6.656l4.031-2.344v4.907l4.25-2.719v4.625l-5.844,3.344v2.469l2,1.156,3.938-2.219v7.063l2.25,1.437,2.281-1.437v-7.063l3.938,2.219,2-1v-2.625l-5.844-3.344v-4.625l4.125,2.531v-4.625l4.344,2.438v6.687l2.031,1.157,2.094-1.157v-4.406l5.843,3.313,2.532-1.126v-2.781l-5.938-3.531,3.719-2.094v-2.406l-1.906-1.344-5.969,3.313-4.219-2.188,4.094-2.375-3.969-2.468,4.094-2.626,5.969,3.532,2-1.125v-2.5l-3.875-2.188,6.187-3.5v-2.625l-2.219-1.375-6.343,3.438v-4.657l-2.157-0.937-2.031,0.937v7.282l-4.281,2.312v-5.031l-4.125,2.5v-4.625l6.063-3.438v-2.187l-2.063-1.375-4.094,2.25v-7.0312l-2.281-1.4688zm68.438,1.9375l-90,90,2.125,2.124,90-90-2.124-2.125zm-70.282,21.594h3.938l1.906,3.313-1.812,3.125h-3.938l-2.125-3.125,2.031-3.313zm44.438,16.438c-8.046,0-14.563,6.521-14.563,14.562,0,0.182,0.024,0.35,0.031,0.531-0.181-0.012-0.349-0.062-0.531-0.062-4.328,0-7.843,3.515-7.843,7.844,0,0.053,0.031,0.103,0.031,0.156-0.62-0.186-1.26-0.312-1.938-0.312-3.713,0-6.719,3.009-6.719,6.718,0,3.713,3.006,5.125,6.719,5.125h43.188c6.364-0.002,11.531-5.166,11.531-11.531,0-6.364-5.167-11.5-11.531-11.5-1.438,0-2.799,0.271-4.063,0.75-1.098-6.956-7.051-12.281-14.312-12.281zm-17.094,38.343l-5.562,15.25,1.187,0.438,5.719-15.688h-1.344zm6.344,0l-5.563,15.25,1.188,0.438,5.719-15.688h-1.344zm6.344,0l-5.563,15.25,1.187,0.438,5.719-15.688h-1.343zm6.343,0l-5.562,15.25,1.187,0.438,5.719-15.688h-1.344zm6.344,0l-5.563,15.25,1.188,0.438,5.719-15.688h-1.344zm6.344,0l-5.563,15.25,1.188,0.438,5.718-15.688h-1.343z"/>
<path id="chancesnow" d="m42.732,50.287,3.955,5.841,7.365,0,3.398-5.841-3.58-6.22-7.379,0zm3.033,46.974,0-13.207-7.379,4.15-3.759-2.152,0-4.653,10.943-6.22,0-8.68-7.939,5.102,0-9.196-7.589,4.374,0,12.468-4.151,2.572-3.508-2.321,0-8.356-11.518,6.498-4.919-2.07,0-5.27,12.089-6.609-7.561-3.801,0-4.822,4.291-2.349,10.845,6.386,7.533-4.346-0.182-0.139-7.701-4.417,7.477-4.64-7.505-4.346-10.844,6.372-4.068-2.026,0-4.808,7.339-4.123-11.713-6.36,0-5.269,4.5-2.319,11.544,6.666,0-8.497,3.48-2.348,4.264,2.46-0.028,12.718,7.756,4.43-0.027-8.986,8.134,4.375,0-8.68-10.943-6.233,0-4.612,3.759-2.18,7.379,4.151,0-13.18,4.222-2.768,4.261,2.768,0,13.18,7.646-4.235,3.845,2.544,0,4.151-11.322,6.414,0,8.68,7.744-4.724,0,9.448,7.979-4.348,0-13.598,3.844-1.789,4.038,1.789,0,8.694,11.879-6.416,4.153,2.53,0,4.919-11.601,6.597,7.254,4.066,0,4.697-3.76,2.083-11.138-6.583-7.702,4.892,7.449,4.642-7.673,4.416,7.926,4.15,11.138-6.221,3.578,2.53,0,4.487-6.988,3.927,11.126,6.61,0,5.188-4.71,2.152-10.931-6.221,0,8.232-3.927,2.194-3.843-2.194,0-12.496-8.092-4.611,0,8.68-7.744-4.725,0,8.68,10.944,6.22,0,4.92-3.776,1.886-7.337-4.15,0,13.207-4.26,2.738z"/>
<path id="chancetstorms" d="M51.312,3.5625c-13.094,0-23.718,10.63-23.718,23.718,0,0.296,0.08,0.548,0.094,0.844-0.296-0.02-0.58-0.063-0.876-0.063-7.044,0-12.75,5.706-12.75,12.75,0,0.088,0.032,0.164,0.032,0.25-1.008-0.302-2.054-0.5-3.156-0.5-6.0435,0-10.938,4.901-10.938,10.938,0,6.043,4.8945,8.312,10.938,8.312h70.312c10.358,0,18.75-8.39,18.75-18.75,0-10.358-8.391-18.75-18.75-18.75-2.34,0-4.568,0.502-6.625,1.282-1.788-11.321-11.495-20.032-23.313-20.032zm-4.593,58.656l-11.969,20.531h8.562l-6.843,13.688,20.531-20.532h-10.281l8.562-13.687h-8.562zm-23.25,3.781l-9.031,24.812,1.937,0.719,9.313-25.531h-2.219zm10.343,0l-9.031,24.812,1.938,0.719,9.281-25.531h-2.188zm30.969,0l-9.031,24.812,1.938,0.719,9.281-25.531h-2.188zm10.313,0l-9,24.812,1.937,0.719,9.281-25.531h-2.218z"/>
<path id="clear" d="M47.812,0v17.062h4.469v-17.062h-4.469zm-19.718,4.875l-3.782,2.375,9,14.438,3.782-2.344-9-14.469zm44.187,0.4375l-8.25,14.906,3.938,2.187,8.219-14.906-3.907-2.1875zm-63.625,16.25l-2.1874,3.938,14.843,8.25,2.188-3.906-14.844-8.282zm41.406,0.657c-15.25,0-27.624,12.417-27.624,27.719,0,15.3,12.374,27.721,27.624,27.718,15.24,0,27.594-12.416,27.594-27.718s-12.356-27.719-27.594-27.719zm41.75,0.531l-14.718,8.531,2.218,3.907,14.719-8.532-2.219-3.906zm-91.812,23.688v4.468h17v-4.468h-17zm83,0.25v4.5h17v-4.5h-17zm-63.594,15.687l-14.406,9.031,2.3438,3.813,14.406-9.063-2.344-3.781zm60.5,0.969l-2.187,3.906,14.875,8.281,2.187-3.937-14.875-8.25zm-11.312,13.625l-3.875,2.219,8.5,14.781,3.875-2.25-8.5-14.75zm-37.156,0.093l-8.25,14.938,3.906,2.156,8.25-14.937-3.906-2.157zm16.093,5.876v17.062h4.469v-17.062h-4.469z"/>
<path id="cloudy" d="M33.469,15v11.938h3.125v-11.938h-3.125zm-13.813,3.406l-2.656,1.656,6.312,10.126,2.657-1.657-6.313-10.125zm30.938,0.313l-4.719,8.531c-2.986,0.663-5.776,1.865-8.25,3.5-0.847-0.119-1.715-0.188-2.594-0.188-10.675,0-19.312,8.695-19.312,19.407,0,1.947,0.305,3.825,0.843,5.593-0.978,1.235-1.775,2.642-2.312,4.157l-0.688-1.063-10.062,6.344,0.3438,0.562c-2.3766,2.331-3.8438,5.561-3.8438,9.126,0,3.52,1.6295,6.439,4.0938,8.093,2.4642,1.654,5.5401,2.219,8.7182,2.219h20.469,3.125,9.125,17.844,16.375c11.15,0,20.25-9.098,20.25-20.25s-9.099-20.219-20.25-20.219c-1.607,0-3.124,0.264-4.594,0.625-2.866-10.607-12.411-18.5-23.906-18.5-0.499,0-0.977,0.034-1.469,0.063l3.563-6.469-2.75-1.531zm-44.532,11.375l-1.5313,2.75,10.407,5.781,1.5-2.75-10.376-5.781zm45.188,1.344c10.088,0,18.319,7.377,19.844,17.031l0.468,2.906,2.75-1.031c1.734-0.658,3.538-1.063,5.438-1.063,8.58,0,15.5,6.89,15.5,15.469s-6.921,15.5-15.5,15.5h-16.375-17.844-32.719c-2.576,0-4.757-0.53-6.062-1.406s-2-1.922-2-4.156c0-4.463,3.5946-8.032,8.062-8.032,0.74,0,1.486,0.128,2.313,0.375l3.063,0.938v-3.219c0-0.288,0.007-0.458,0-0.5,0.133-5.302,4.412-9.5,9.75-9.5-0.078,0,0.118,0.026,0.656,0.062l2.656,0.188-0.125-2.656c-0.029-0.651-0.063-0.871-0.063-0.719,0-11.178,9.002-20.187,20.188-20.187zm-51.25,16.062v3.125h11.906v-3.125h-11.906z"/>
<path id="dust" d="M51.312,0c-5.182,0-9.974,1.68-13.874,4.5h27.687c-3.879-2.82-8.641-4.5-13.813-4.5zm-18.312,8.625c-1.135,1.375-2.102,2.891-2.906,4.5h42.312c-0.806-1.614-1.771-3.121-2.906-4.5h-36.5zm-4.5,8.625c-0.41,1.451-0.686,2.95-0.812,4.5h63.718c-2.932-1.897-6.403-3-10.156-3-2.34,0-4.568,0.47-6.625,1.25-0.15-0.948-0.368-1.843-0.625-2.75h-45.5zm-7.438,8.625c-2.04,1.037-3.774,2.58-5,4.5h82.532c-0.668-1.626-1.551-3.141-2.625-4.5h-74.907zm-6.718,8.625c-0.192,0.879-0.282,1.814-0.282,2.75,0,0.087,0.032,0.163,0.032,0.25-1.008-0.302-2.054-0.531-3.156-0.531-2.3638,0-4.5566,0.758-6.3442,2.031h95.344c0.038-0.499,0.062-0.991,0.062-1.5,0-1.025-0.092-2.02-0.25-3h-85.406zm-13.25,8.625c-0.66562,1.366-1.0531,2.889-1.0938,4.5h97.031c0.893-1.385,1.589-2.896,2.094-4.5h-98.031zm-0.25005,8.625c1.6598,3.194,5.5612,4.5,10.094,4.5h70.312c4.652,0,8.91-1.698,12.188-4.5h-92.594zm38.468,10.75c-0.759-0.008-1.556,0.309-2.25,0.938-1.335,1.169-1.566,2.837-1.562,4.343,0,0.72,0.028,1.412,0.062,2.094-0.312-0.273-0.654-0.545-1.093-0.813-0.923-0.583-1.719-0.901-2.5-0.906-1.983,0.081-2.569,1.987-2.625,4.063-2.107,1.723-2.485,8.9,1.25,7.656,2.024-0.679,2.888-3.279,2.687-5.063,0,0-0.133-2.52-2.406-2.906,0.113-1.699,0.571-2.25,1.094-2.25,0.322-0.007,0.906,0.152,1.687,0.656,1.414,0.98,1.839,1.344,2,2.25,0.022,0.858,0.123,2.878,0.125,2.969,0.215,3.013,0.671,5.308,1,8.344h-15.375l2.406,1.125,10.188,3.406,9.406-1.625,6.594,2.313,5.219-1.625,1.562-3.594h-17.75c-0.332-3.103-1.537-5.565-1.75-8.563,0.025-1.026,0.014-1.776-0.125-2.75-0.014-0.558-0.062-1.052-0.062-1.624,0-1.092-0.094-2.176-0.094-3.157,0.005-1.388,0.215-2.473,1.062-3.219,0.506-0.442,0.912-0.556,1.25-0.562,0.889-0.094,2.063,1.286,2.657,2.844-0.523,0.425-0.813,0.812-0.813,0.812-2.021,2.831,5.595,10.919,8.625,6.563,1.297-1.864-0.371-7.221-3.437-8.281-1.201-0.418-2.252-0.24-3.094,0.124-0.718-1.754-1.95-3.466-3.938-3.562zm4.282,4.281s3.683,2.507,4.718,6.969l-5.781-6.312,1.063-0.657zm-13.032,6.063l-1.031,5.781c-0.517-1.831,0-5.344,0-5.344l1.031-0.437zm-30.562,11.031v6.375l5.2188-2.781,1.5624-3.594h-6.7812zm8.6875,0l-2.0937,4.187,4.7812,6,4.594-2.75,4.781-5.937-1.469-1.5h-10.594zm50,0l-2.094,4.187,4.781,6,4.594-2.75,4.781-5.937-1.469-1.5h-10.593zm12.718,0l2.406,1.125,10.188,3.406,7.938-1.125,8.062-2.562v-0.844h-28.594zm-48.718,2.281l-4.563,5.656,12.5,6.782,7.625-1.469-5.375-7.594-10.187-3.375zm50,0l-4.563,5.656,12.5,6.782,7.625-1.469-5.375-7.594-10.187-3.375zm27.312,0l-5.281,1.406,5.281,1.532v-2.938zm-56.781,2.594l-7.688,1.031,5.031,7.313,13.344,2.906,5.813-4.75-4.375-5.75-5.344,1.438-6.781-2.188zm50,0l-7.688,1.031,5.031,7.313,9.438,2.218v-8.374l-6.781-2.188zm-87.875,0.75l-5.3438,2.562v7.938h3.9062l5.8126-4.781-4.375-5.719zm11.406,3.625l-8.1562,5.531,1.0937,1.344h18.718l-0.062-0.281-11.594-6.594zm50,0l-8.156,5.531,1.094,1.344h18.718l-0.062-0.281-11.594-6.594zm-27.062,5.469l-6.376,1.406h12.219l-5.843-1.406zm50,0l-6.376,1.406h12.219l-5.843-1.406z"/>
<path id="flurries" d="m42.732,50.287,3.955,5.841,7.365,0,3.398-5.841-3.58-6.22-7.379,0zm3.033,46.974,0-13.207-7.379,4.15-3.759-2.152,0-4.653,10.943-6.22,0-8.68-7.939,5.102,0-9.196-7.589,4.374,0,12.468-4.151,2.572-3.508-2.321,0-8.356-11.518,6.498-4.919-2.07,0-5.27,12.089-6.609-7.561-3.801,0-4.822,4.291-2.349,10.845,6.386,7.533-4.346-0.182-0.139-7.701-4.417,7.477-4.64-7.505-4.346-10.844,6.372-4.068-2.026,0-4.808,7.339-4.123-11.713-6.36,0-5.269,4.5-2.319,11.544,6.666,0-8.497,3.48-2.348,4.264,2.46-0.028,12.718,7.756,4.43-0.027-8.986,8.134,4.375,0-8.68-10.943-6.233,0-4.612,3.759-2.18,7.379,4.151,0-13.18,4.222-2.768,4.261,2.768,0,13.18,7.646-4.235,3.845,2.544,0,4.151-11.322,6.414,0,8.68,7.744-4.724,0,9.448,7.979-4.348,0-13.598,3.844-1.789,4.038,1.789,0,8.694,11.879-6.416,4.153,2.53,0,4.919-11.601,6.597,7.254,4.066,0,4.697-3.76,2.083-11.138-6.583-7.702,4.892,7.449,4.642-7.673,4.416,7.926,4.15,11.138-6.221,3.578,2.53,0,4.487-6.988,3.927,11.126,6.61,0,5.188-4.71,2.152-10.931-6.221,0,8.232-3.927,2.194-3.843-2.194,0-12.496-8.092-4.611,0,8.68-7.744-4.725,0,8.68,10.944,6.22,0,4.92-3.776,1.886-7.337-4.15,0,13.207-4.26,2.738z"/>
<path id="fog" d="M51.312,21.875c-5.183,0-9.974,1.68-13.874,4.5h27.687c-3.879-2.82-8.642-4.5-13.813-4.5zm-18.312,8.625c-1.135,1.375-2.102,2.891-2.906,4.5h42.312c-0.806-1.614-1.771-3.121-2.906-4.5h-36.5zm-4.5,8.625c-0.41,1.451-0.686,2.95-0.812,4.5h63.718c-2.932-1.897-6.403-3-10.156-3-2.34,0-4.568,0.47-6.625,1.25-0.15-0.948-0.368-1.843-0.625-2.75h-45.5zm-7.438,8.625c-2.041,1.037-3.774,2.58-5,4.5h82.532c-0.668-1.626-1.551-3.141-2.625-4.5h-74.907zm-6.718,8.625c-0.192,0.879-0.282,1.814-0.282,2.75,0,0.087,0.032,0.163,0.032,0.25-1.008-0.302-2.054-0.531-3.156-0.531-2.3633,0-4.5566,0.758-6.3442,2.031h95.344c0.039-0.499,0.062-0.991,0.062-1.5,0-1.025-0.092-2.02-0.25-3h-85.406zm-13.25,8.625c-0.66557,1.366-1.0531,2.889-1.0938,4.5h97.031c0.893-1.385,1.589-2.896,2.094-4.5h-98.031zm-0.25005,8.625c1.6598,3.194,5.5614,4.5,10.094,4.5h70.312c4.652,0,8.91-1.698,12.188-4.5h-92.594z"/>
<path id="hazy" d="m51.312,5.9375c-5.183,0-9.975,1.68-13.875,4.5h27.688c-3.879-2.82-8.6415-4.5-13.812-4.5zm-18.312,8.6245c-1.135,1.375-2.1022,2.891-2.9062,4.5h42.312c-0.806-1.614-1.7712-3.121-2.9062-4.5h-36.5zm-4.5,8.625c-0.41,1.451-0.6865,2.95-0.8125,4.5h12.469v4.125h-19.094c-2.041,1.037-3.774,2.58-5,4.5h24.094v4.125h-25.812c-0.192,0.879-0.28125,1.814-0.28125,2.75,0,0.087,0.03125,0.163,0.03125,0.25-1.008-0.302-2.0542-0.53125-3.1562-0.53125-2.3633,0-4.5562,0.75825-6.3438,2.0312h35.562v4.125h-6.25v-3.6875h-20.406v3.6875h-12.406c-0.66682,1.366-1.0543,2.89-1.095,4.5h13.5v4.125h-12.656c1.6598,3.194,5.5611,4.5,10.094,4.5h2.5625v21.281h-13.5v10.594h100v-10.594h-12.75v-22.312c2.2843-0.7748,4.3939-1.9356,6.1875-3.4688h-6.1875v-4.125h9.7812c0.893-1.385,1.5888-2.896,2.0938-4.5h-35.406v-4.125h36.219c0.039-0.499,0.0625-0.991,0.0625-1.5,0-1.025-0.092-2.02-0.25-3h-36.031v-4.125h34.875c-0.668-1.626-1.551-3.141-2.625-4.5h-32.25v-4.125h27.688c-2.932-1.897-6.4032-3-10.156-3-2.34,0-4.568,0.47-6.625,1.25-0.15-0.948-0.368-1.843-0.625-2.75h-45.5zm14.094,6.3438,7.4375,0,0,2.2812-7.4375,0,0-2.2812zm11.25,0,7.4375,0,0,2.2812-7.4375,0,0-2.2812zm-11.25,8.125,7.4375,0,0,2.7812-7.4375,0,0-2.7812zm11.25,0,7.4375,0,0,2.7812-7.4375,0,0-2.7812zm-37.375,15.906,4.5625,0,0,2.3125-4.5625,0,0-2.3125zm9.875,0,4.5625,0,0,2.3125-4.5625,0,0-2.3125zm7.5625,0,6.25,0,0,4.125-6.25,0,0-4.125zm29.812,0,9.4062,0,0,4.125-9.4062,0,0-4.125zm-29.812,8.625,6.25,0,0,21.281-6.25,0,0-21.281zm29.812,0,9.4062,0,0,21.281-9.4062,0,0-21.281z"/>
<path id="mostlycloudy" d="M33.469,15v11.938h3.125v-11.938h-3.125zm-13.813,3.406l-2.656,1.656,6.312,10.126,2.657-1.657-6.313-10.125zm30.938,0.313l-4.719,8.531c-2.986,0.663-5.776,1.865-8.25,3.5-0.847-0.119-1.715-0.188-2.594-0.188-10.675,0-19.312,8.695-19.312,19.407,0,1.947,0.305,3.825,0.843,5.593-0.978,1.235-1.775,2.642-2.312,4.157l-0.688-1.063-10.062,6.344,0.3438,0.562c-2.3766,2.331-3.8438,5.561-3.8438,9.126,0,3.52,1.6295,6.439,4.0938,8.093,2.4642,1.654,5.5401,2.219,8.7182,2.219h20.469,3.125,9.125,17.844,16.375c11.15,0,20.25-9.098,20.25-20.25s-9.099-20.219-20.25-20.219c-1.607,0-3.124,0.264-4.594,0.625-2.866-10.607-12.411-18.5-23.906-18.5-0.499,0-0.977,0.034-1.469,0.063l3.563-6.469-2.75-1.531zm-44.532,11.375l-1.5313,2.75,10.407,5.781,1.5-2.75-10.376-5.781zm45.188,1.344c10.088,0,18.319,7.377,19.844,17.031l0.468,2.906,2.75-1.031c1.734-0.658,3.538-1.063,5.438-1.063,8.58,0,15.5,6.89,15.5,15.469s-6.921,15.5-15.5,15.5h-16.375-17.844-32.719c-2.576,0-4.757-0.53-6.062-1.406s-2-1.922-2-4.156c0-4.463,3.5946-8.032,8.062-8.032,0.74,0,1.486,0.128,2.313,0.375l3.063,0.938v-3.219c0-0.288,0.007-0.458,0-0.5,0.133-5.302,4.412-9.5,9.75-9.5-0.078,0,0.118,0.026,0.656,0.062l2.656,0.188-0.125-2.656c-0.029-0.651-0.063-0.871-0.063-0.719,0-11.178,9.002-20.187,20.188-20.187zm-51.25,16.062v3.125h11.906v-3.125h-11.906z"/>
<path id="mostlysunny" d="M43.031,0v15.344h4v-15.344h-4zm-17.75,4.375l-3.406,2.1562,8.125,13,3.406-2.125-8.125-13.031zm39.781,0.4062l-7.437,13.407,3.531,1.968,7.406-13.406-3.5-1.9688zm-57.281,14.625l-1.9687,3.532,13.376,7.437,1.968-3.531-13.375-7.438zm37.281,0.594c-13.724,0-24.874,11.166-24.874,24.938,0,13.77,11.15,24.94,24.874,24.937,13.716,0,24.813-11.165,24.813-24.937s-11.099-24.938-24.813-24.938zm37.563,0.5l-13.25,7.656,2.031,3.5,13.25-7.656-2.031-3.5zm-82.625,21.281v4.031h15.312v-4.031h-15.312zm74.688,0.25v4.031h15.312v-4.031h-15.312zm-57.219,14.094l-12.969,8.156,2.0938,3.407,13-8.126-2.125-3.437zm54.437,0.875l-1.968,3.531,13.406,7.438,1.937-3.531-13.375-7.438zm-10.187,12.25l-3.469,2,7.656,13.312,3.469-2-7.656-13.312zm-33.438,0.094l-7.406,13.437,3.5,1.969,7.437-13.438-3.531-1.968zm14.5,5.312v15.344h4.031v-15.344h-4.031zm37.719,2c-5.303,0-9.565,4.213-9.875,9.438-2.591,0.249-4.6,2.193-5.063,4.718-0.152-0.016-0.276-0.062-0.437-0.062-2.817,0-5.125,2.31-5.125,5.125,0,1.408,0.671,2.588,1.656,3.25,0.986,0.662,2.198,0.875,3.469,0.875h13.094,7.125,6.562c4.46,0,8.094-3.633,8.094-8.094s-3.633-8.094-8.094-8.094c-0.677,0-1.29,0.185-1.906,0.344-1.127-4.272-4.881-7.5-9.5-7.5zm0,1.906c4.035,0,7.328,2.983,7.938,6.844l0.187,1.156,1.094-0.437c0.693-0.263,1.427-0.406,2.187-0.406,3.432,0,6.188,2.756,6.188,6.187,0,3.432-2.756,6.188-6.188,6.188h-6.562-7.125-13.094c-1.031,0-1.884-0.212-2.406-0.563-0.522-0.35-0.813-0.762-0.813-1.656,0-1.785,1.432-3.219,3.219-3.219,0.296,0,0.576,0.057,0.906,0.156l1.25,0.376v-1.282c0-0.059-0.028-0.061-0.031-0.094,0-0.054-0.005-0.05,0-0.062-0.001-0.005,0.001-0.029,0-0.031,0.05-2.124,1.77-3.813,3.906-3.813-0.031,0,0.066,0.017,0.282,0.032l1.062,0.062-0.031-1.062c-0.012-0.261-0.063-0.343-0.063-0.282,0-4.471,3.62-8.094,8.094-8.094z"/>
<path id="nsurtsra" d="M50,0c-20.898,0-40.913,4.784-46.875,9.375,2.805,6.747,33.855,9.375,46.875,9.375s43.548-3.544,46.875-9.375c-3.864-5.116-23.854-9.375-46.875-9.375zm-46.844,12.5c-0.049,0.195-1.661,18.125,28.125,28.125,20.639,6.924,9.375,18.75,9.375,18.75s-22.412,21.25-3.156,28.125c12.062,4.292,10.92,10.118,9.375,12.5,11.7-14.721-21.6-17.334,15.656-34.375,19.116-8.754,21.485-13.846,15.594-21.875-7.717-10.55,17.12-14.778,18.75-31.25-7.369,5.788-26.346,9.033-46.875,9.375-23.121-0.378-41.557-1.987-46.844-9.375z"/>
<path id="partlycloudy" d="M33.469,15v11.938h3.125v-11.938h-3.125zm-13.813,3.406l-2.656,1.656,6.312,10.126,2.657-1.657-6.313-10.125zm30.938,0.313l-5.782,10.437,2.75,1.532,5.782-10.438-2.75-1.531zm-44.532,11.375l-1.5313,2.75,10.407,5.781,1.5-2.75-10.376-5.781zm28.968,0.468c-10.675,0-19.312,8.695-19.312,19.407,0,9.054,6.173,16.619,14.531,18.75-3.104,1.593-5.25,4.819-5.25,8.531,0,2.64,1.214,4.853,3.062,6.094,1.508,1.012,3.31,1.457,5.219,1.594v0.062h1.313,1.812,22.75,13.375,12.281c8.363,0,15.188-6.823,15.188-15.188,0-8.364-6.824-15.156-15.188-15.156-1.204,0-2.335,0.198-3.437,0.469-2.148-7.959-9.313-13.875-17.937-13.875-3.692,0-7.108,1.081-10,2.938-2.449-7.888-9.748-13.626-18.407-13.626zm29.219,0.376l-10.281,5.968,1.562,2.719,10.313-5.969-1.594-2.718zm-0.812,13.874c7.565,0,13.762,5.572,14.906,12.813l0.312,2.156,2.063-0.781c1.3-0.493,2.668-0.781,4.093-0.781,6.436,0,11.626,5.159,11.626,11.593,0,6.435-5.191,11.626-11.626,11.626h-12.281-13.375-24.562c-1.933,0-3.553-0.406-4.532-1.063-0.978-0.657-1.5-1.449-1.5-3.125,0-3.347,2.681-6.031,6.032-6.031,0.554,0,1.13,0.126,1.75,0.312l2.281,0.688v-2.407-0.187c0-4.067,3.246-7.313,7.313-7.313-0.059,0,0.097,0.036,0.5,0.063l2,0.125-0.094-2c-0.022-0.488-0.063-0.646-0.063-0.531,0-8.384,6.767-15.157,15.157-15.157zm-63.438,2.688v3.125h11.906v-3.125h-11.906zm13.562,11.156l-10.062,6.344,1.625,2.656,10.094-6.344-1.657-2.656zm8.438,10.282l-5.75,10.468,2.719,1.5,5.781-10.437-2.75-1.531z"/>
<path id="partlysunny" d="M33.469,15v11.938h3.125v-11.938h-3.125zm-13.813,3.406l-2.656,1.656,6.312,10.126,2.657-1.657-6.313-10.125zm30.938,0.313l-5.782,10.437,2.75,1.532,5.782-10.438-2.75-1.531zm-44.532,11.375l-1.5313,2.75,10.407,5.781,1.5-2.75-10.376-5.781zm28.968,0.468c-10.675,0-19.312,8.695-19.312,19.407,0,9.054,6.173,16.619,14.531,18.75-3.104,1.593-5.25,4.819-5.25,8.531,0,2.64,1.214,4.853,3.062,6.094,1.508,1.012,3.31,1.457,5.219,1.594v0.062h1.313,1.812,22.75,13.375,12.281c8.363,0,15.188-6.823,15.188-15.188,0-8.364-6.824-15.156-15.188-15.156-1.204,0-2.335,0.198-3.437,0.469-2.148-7.959-9.313-13.875-17.937-13.875-3.692,0-7.108,1.081-10,2.938-2.449-7.888-9.748-13.626-18.407-13.626zm29.219,0.376l-10.281,5.968,1.562,2.719,10.313-5.969-1.594-2.718zm-0.812,13.874c7.565,0,13.762,5.572,14.906,12.813l0.312,2.156,2.063-0.781c1.3-0.493,2.668-0.781,4.093-0.781,6.436,0,11.626,5.159,11.626,11.593,0,6.435-5.191,11.626-11.626,11.626h-12.281-13.375-24.562c-1.933,0-3.553-0.406-4.532-1.063-0.978-0.657-1.5-1.449-1.5-3.125,0-3.347,2.681-6.031,6.032-6.031,0.554,0,1.13,0.126,1.75,0.312l2.281,0.688v-2.407-0.187c0-4.067,3.246-7.313,7.313-7.313-0.059,0,0.097,0.036,0.5,0.063l2,0.125-0.094-2c-0.022-0.488-0.063-0.646-0.063-0.531,0-8.384,6.767-15.157,15.157-15.157zm-63.438,2.688v3.125h11.906v-3.125h-11.906zm13.562,11.156l-10.062,6.344,1.625,2.656,10.094-6.344-1.657-2.656zm8.438,10.282l-5.75,10.468,2.719,1.5,5.781-10.437-2.75-1.531z"/>
<path id="rain" d="M51.188,6.8125c-12.627,0-22.762,10.028-23.5,22.468-6.17,0.593-10.961,5.238-12.063,11.25-0.362-0.038-0.648-0.156-1.031-0.156-6.7074,0-12.219,5.485-12.219,12.187,0,3.353,1.5923,6.174,3.9375,7.75,2.3476,1.577,5.2555,2.094,8.2815,2.094h31.156,16.969,15.625c10.619,0,19.281-8.66,19.281-19.281s-8.66-19.281-19.281-19.281c-1.612,0-3.065,0.434-4.532,0.812-2.683-10.171-11.627-17.844-22.624-17.844zm0,4.5315c9.607,0,17.453,7.119,18.906,16.312l0.437,2.75,2.625-1.062c1.65-0.626,3.378-0.938,5.188-0.938,8.171,0,14.75,6.55,14.75,14.719,0,8.171-6.579,14.719-14.75,14.719h-15.625-16.969-31.156c-2.455,0-4.507-0.508-5.7502-1.344-1.2429-0.833-1.9376-1.809-1.9376-3.938,0-4.249,3.4328-7.656,7.6878-7.656,0.705,0,1.37,0.14,2.156,0.375l2.969,0.907v-3.063c0-0.14-0.056-0.14-0.063-0.219,0-0.128-0.012-0.127,0-0.156-0.002-0.012,0.002-0.058,0-0.062,0.119-5.058,4.196-9.094,9.282-9.094-0.074,0,0.173,0.058,0.687,0.094l2.531,0.124-0.094-2.531c-0.028-0.621-0.156-0.801-0.156-0.656,0-10.645,8.629-19.281,19.282-19.281zm-27.719,57.125l-9.031,24.781,1.937,0.719,9.313-25.5h-2.219zm17.219,0l-9.032,24.781,1.938,0.719,9.281-25.5h-2.187zm17.218,0l-9.031,24.781,1.937,0.719,9.282-25.5h-2.188zm17.188,0l-9,24.781,1.937,0.719,9.281-25.5h-2.218z"/>
<path id="raip" d="M30.219,2c-7.202,0-13.031,5.8326-13.031,13.031,0,0.163,0.024,0.306,0.031,0.469-0.163-0.011-0.306-0.031-0.469-0.031-3.875,0-7,3.125-7,7v0.156c-0.5544-0.166-1.112-0.281-1.7188-0.281-3.3236,0-6.0312,2.679-6.0312,6,0,3.323,2.7076,4.594,6.0312,4.594h38.657c5.696,0,10.312-4.615,10.312-10.313,0-5.697-4.616-10.313-10.312-10.313-1.288,0-2.525,0.259-3.657,0.688-0.983-6.2265-6.313-11-12.812-11zm63.719,1.9375l-90,90,2.125,2.124,90-90-2.124-2.125zm-79.032,32.406l-4.9685,13.625,1.0625,0.406,5.125-14.031h-1.219zm5.688,0l-4.969,13.625,1.063,0.406,5.124-14.031h-1.218zm5.687,0l-4.969,13.625,1.063,0.406,5.094-14.031h-1.188zm5.657,0l-4.938,13.625,1.062,0.406,5.094-14.031h-1.218zm5.687,0l-4.969,13.625,1.063,0.406,5.125-14.031h-1.219zm5.687,0l-4.968,13.625,1.062,0.406,5.094-14.031h-1.188zm27.907,11.812c-7.202,0-13.031,5.833-13.031,13.032,0,0.162,0.024,0.305,0.031,0.468-0.163-0.011-0.306-0.062-0.469-0.062-3.875,0-7,3.156-7,7.031v0.156c-0.554-0.166-1.112-0.312-1.719-0.312-3.323,0-6.031,2.711-6.031,6.031,0,3.324,2.708,4.594,6.031,4.594h38.657c5.696,0,10.312-4.616,10.312-10.313s-4.615-10.312-10.312-10.312c-1.288,0-2.525,0.258-3.657,0.687-0.983-6.226-6.313-11-12.812-11zm-5.25,32.782c-0.535,0.026-1.024,0.34-1.219,0.874-0.26,0.714,0.099,1.521,0.812,1.782,0.714,0.26,1.521-0.1,1.782-0.813,0.26-0.713-0.131-1.521-0.844-1.781-0.178-0.065-0.353-0.071-0.531-0.062zm18.937,0c-0.535,0.026-1.023,0.34-1.218,0.874-0.261,0.714,0.099,1.521,0.812,1.782,0.713,0.26,1.521-0.1,1.781-0.813,0.261-0.713-0.13-1.521-0.843-1.781-0.179-0.065-0.353-0.071-0.532-0.062zm-28.656,0.531c-0.428,0.021-0.844,0.291-1,0.719-0.208,0.57,0.086,1.197,0.656,1.406,0.571,0.208,1.198-0.086,1.406-0.656,0.209-0.571-0.054-1.198-0.624-1.407-0.143-0.052-0.295-0.069-0.438-0.062zm18.938,0c-0.429,0.021-0.844,0.291-1,0.719-0.209,0.57,0.085,1.197,0.656,1.406,0.57,0.208,1.198-0.086,1.406-0.656,0.208-0.571-0.086-1.198-0.656-1.407-0.143-0.052-0.264-0.069-0.406-0.062zm-10.532,3.031c-0.535,0.027-1.023,0.371-1.218,0.906-0.261,0.713,0.099,1.49,0.812,1.75,0.713,0.261,1.521-0.099,1.781-0.812,0.261-0.713-0.13-1.49-0.843-1.75-0.179-0.065-0.353-0.103-0.532-0.094zm18.938,0c-0.535,0.027-1.024,0.371-1.219,0.906-0.26,0.713,0.099,1.49,0.813,1.75,0.713,0.261,1.52-0.099,1.781-0.812,0.26-0.713-0.131-1.49-0.844-1.75-0.178-0.065-0.353-0.103-0.531-0.094zm-28.656,0.562c-0.429,0.022-0.813,0.291-0.969,0.719-0.209,0.571,0.086,1.198,0.656,1.407,0.571,0.208,1.198-0.086,1.406-0.657,0.209-0.57-0.086-1.198-0.656-1.406-0.143-0.052-0.295-0.07-0.437-0.063zm18.937,0c-0.428,0.022-0.844,0.291-1,0.719-0.208,0.571,0.086,1.198,0.656,1.407,0.571,0.208,1.229-0.086,1.438-0.657,0.208-0.57-0.086-1.198-0.657-1.406-0.142-0.052-0.294-0.07-0.437-0.063zm-10.531,3.032c-0.535,0.027-1.024,0.371-1.219,0.906-0.26,0.713,0.099,1.49,0.813,1.75,0.713,0.26,1.52-0.099,1.781-0.812,0.26-0.714-0.1-1.521-0.813-1.782-0.178-0.065-0.384-0.071-0.562-0.062zm18.937,0c-0.535,0.027-1.023,0.371-1.219,0.906-0.26,0.713,0.1,1.49,0.813,1.75s1.521-0.099,1.781-0.812c0.261-0.714-0.099-1.521-0.812-1.782-0.179-0.065-0.384-0.071-0.563-0.062zm-28.656,0.531c-0.428,0.021-0.812,0.291-0.969,0.719-0.208,0.57,0.086,1.229,0.656,1.437,0.571,0.209,1.198-0.086,1.407-0.656,0.208-0.571-0.086-1.229-0.657-1.437-0.142-0.053-0.294-0.07-0.437-0.063zm18.937,0c-0.428,0.021-0.812,0.291-0.968,0.719-0.209,0.57,0.086,1.229,0.656,1.437,0.571,0.209,1.198-0.085,1.406-0.656,0.209-0.571-0.086-1.229-0.656-1.437-0.143-0.053-0.295-0.07-0.438-0.063zm-10.531,3.031c-0.535,0.027-1.023,0.372-1.219,0.906-0.26,0.714,0.131,1.521,0.844,1.782,0.713,0.26,1.49-0.131,1.75-0.844,0.261-0.713-0.099-1.49-0.812-1.75-0.179-0.065-0.384-0.103-0.563-0.094zm18.938,0c-0.535,0.027-1.024,0.372-1.219,0.906-0.26,0.714,0.131,1.521,0.844,1.782,0.713,0.26,1.489-0.131,1.75-0.844,0.26-0.713-0.1-1.49-0.813-1.75-0.178-0.065-0.384-0.103-0.562-0.094zm-28.657,0.563c-0.428,0.021-0.812,0.291-0.968,0.719-0.209,0.57,0.086,1.197,0.656,1.406,0.571,0.208,1.198-0.086,1.406-0.656,0.209-0.571-0.086-1.198-0.656-1.407-0.143-0.052-0.295-0.069-0.438-0.062zm18.938,0c-0.428,0.021-0.812,0.291-0.969,0.719-0.208,0.57,0.086,1.197,0.657,1.406,0.57,0.208,1.197-0.086,1.406-0.656,0.208-0.571-0.086-1.198-0.656-1.407-0.143-0.052-0.295-0.069-0.438-0.062zm-13.656,1.219c-0.76,0-1.375,0.615-1.375,1.374,0,0.76,0.615,1.376,1.375,1.376,0.759,0,1.375-0.616,1.375-1.376,0-0.759-0.616-1.374-1.375-1.374zm18.937,0c-0.759,0-1.375,0.615-1.375,1.374,0,0.76,0.616,1.376,1.375,1.376,0.76,0,1.375-0.616,1.375-1.376,0-0.759-0.615-1.374-1.375-1.374zm-28.687,0.562c-0.608,0-1.094,0.486-1.094,1.094,0,0.607,0.486,1.094,1.094,1.094,0.607,0,1.094-0.487,1.094-1.094,0-0.608-0.487-1.094-1.094-1.094zm18.937,0c-0.607,0-1.093,0.486-1.093,1.094,0,0.607,0.486,1.094,1.093,1.094,0.608,0,1.094-0.487,1.094-1.094,0-0.608-0.486-1.094-1.094-1.094zm-6.031,1.25c-0.535,0.027-1.055,0.371-1.25,0.906-0.26,0.713,0.131,1.49,0.844,1.75,0.713,0.261,1.489-0.099,1.75-0.812,0.26-0.713-0.1-1.49-0.813-1.75-0.178-0.065-0.353-0.103-0.531-0.094zm18.938,0c-0.536,0.027-1.055,0.371-1.25,0.906-0.261,0.713,0.13,1.49,0.843,1.75,0.713,0.261,1.49-0.099,1.75-0.812,0.261-0.713-0.099-1.49-0.812-1.75-0.179-0.065-0.353-0.103-0.531-0.094zm-28.688,0.562c-0.428,0.022-0.812,0.291-0.969,0.719-0.208,0.571,0.086,1.198,0.657,1.407,0.57,0.208,1.197-0.086,1.406-0.657,0.208-0.57-0.086-1.198-0.656-1.406-0.143-0.052-0.295-0.07-0.438-0.063zm18.938,0c-0.429,0.022-0.813,0.291-0.969,0.719-0.209,0.571,0.086,1.198,0.656,1.407,0.571,0.208,1.198-0.086,1.406-0.657,0.209-0.57-0.086-1.198-0.656-1.406-0.143-0.052-0.295-0.07-0.437-0.063z"/>
<path id="sleet" d="M25.5,2l-2.25,1.4688v7.0312l-3.938-2.1875-2,1.1563v2.4692l5.844,3.312v4.625l-4.344-2.313v4.782l-4.124-2.375v-6.781l-2.25-1.313-1.876,1.25v4.531l-6.1558-3.531-2.4062,1.219v2.812l6.25,3.406-3.9062,2.188v2.562l2.1562,1.094,5.781-3.406,4.031,2.312-4,2.5,4.126,2.344,0.093,0.094-4.031,2.312-5.7812-3.406-2.3126,1.25v2.563l4.0626,2.031-6.4688,3.531v2.813l2.625,1.094,6.156-3.469v4.469l1.875,1.25,2.219-1.376v-6.656l4.031-2.344v4.907l4.25-2.719v4.625l-5.844,3.344v2.469l2,1.156,3.938-2.219v7.063l2.25,1.437,2.281-1.437v-7.063l3.938,2.219,2-1v-2.625l-5.844-3.344v-4.625l4.125,2.531v-4.625l4.344,2.438v6.687l2.031,1.157,2.094-1.157v-4.406l5.843,3.313,2.532-1.126v-2.781l-5.938-3.531,3.719-2.094v-2.406l-1.906-1.344-5.969,3.313-4.219-2.188,4.094-2.375-3.969-2.468,4.094-2.626,5.969,3.532,2-1.125v-2.5l-3.875-2.188,6.187-3.5v-2.625l-2.219-1.375-6.343,3.438v-4.657l-2.157-0.937-2.031,0.937v7.282l-4.281,2.312v-5.031l-4.125,2.5v-4.625l6.063-3.438v-2.187l-2.063-1.375-4.094,2.25v-7.0312l-2.281-1.4688zm68.438,1.9375l-90,90,2.125,2.124,90-90-2.124-2.125zm-70.282,21.594h3.938l1.906,3.313-1.812,3.125h-3.938l-2.125-3.125,2.031-3.313zm44.438,16.438c-8.046,0-14.563,6.521-14.563,14.562,0,0.182,0.024,0.35,0.031,0.531-0.181-0.012-0.349-0.062-0.531-0.062-4.328,0-7.843,3.515-7.843,7.844,0,0.053,0.031,0.103,0.031,0.156-0.62-0.186-1.26-0.312-1.938-0.312-3.713,0-6.719,3.009-6.719,6.718,0,3.713,3.006,5.125,6.719,5.125h43.188c6.364-0.002,11.531-5.166,11.531-11.531,0-6.364-5.167-11.5-11.531-11.5-1.438,0-2.799,0.271-4.063,0.75-1.098-6.956-7.051-12.281-14.312-12.281zm-17.094,38.343l-5.562,15.25,1.187,0.438,5.719-15.688h-1.344zm6.344,0l-5.563,15.25,1.188,0.438,5.719-15.688h-1.344zm6.344,0l-5.563,15.25,1.187,0.438,5.719-15.688h-1.343zm6.343,0l-5.562,15.25,1.187,0.438,5.719-15.688h-1.344zm6.344,0l-5.563,15.25,1.188,0.438,5.719-15.688h-1.344zm6.344,0l-5.563,15.25,1.188,0.438,5.718-15.688h-1.343z"/>
<path id="snow" d="m42.732,50.287,3.955,5.841,7.365,0,3.398-5.841-3.58-6.22-7.379,0zm3.033,46.974,0-13.207-7.379,4.15-3.759-2.152,0-4.653,10.943-6.22,0-8.68-7.939,5.102,0-9.196-7.589,4.374,0,12.468-4.151,2.572-3.508-2.321,0-8.356-11.518,6.498-4.919-2.07,0-5.27,12.089-6.609-7.561-3.801,0-4.822,4.291-2.349,10.845,6.386,7.533-4.346-0.182-0.139-7.701-4.417,7.477-4.64-7.505-4.346-10.844,6.372-4.068-2.026,0-4.808,7.339-4.123-11.713-6.36,0-5.269,4.5-2.319,11.544,6.666,0-8.497,3.48-2.348,4.264,2.46-0.028,12.718,7.756,4.43-0.027-8.986,8.134,4.375,0-8.68-10.943-6.233,0-4.612,3.759-2.18,7.379,4.151,0-13.18,4.222-2.768,4.261,2.768,0,13.18,7.646-4.235,3.845,2.544,0,4.151-11.322,6.414,0,8.68,7.744-4.724,0,9.448,7.979-4.348,0-13.598,3.844-1.789,4.038,1.789,0,8.694,11.879-6.416,4.153,2.53,0,4.919-11.601,6.597,7.254,4.066,0,4.697-3.76,2.083-11.138-6.583-7.702,4.892,7.449,4.642-7.673,4.416,7.926,4.15,11.138-6.221,3.578,2.53,0,4.487-6.988,3.927,11.126,6.61,0,5.188-4.71,2.152-10.931-6.221,0,8.232-3.927,2.194-3.843-2.194,0-12.496-8.092-4.611,0,8.68-7.744-4.725,0,8.68,10.944,6.22,0,4.92-3.776,1.886-7.337-4.15,0,13.207-4.26,2.738z"/>
<path id="sunny" d="M47.812,0v17.062h4.469v-17.062h-4.469zm-19.718,4.875l-3.782,2.375,9,14.438,3.782-2.344-9-14.469zm44.187,0.4375l-8.25,14.906,3.938,2.187,8.219-14.906-3.907-2.1875zm-63.625,16.25l-2.1874,3.938,14.843,8.25,2.188-3.906-14.844-8.282zm41.406,0.657c-15.25,0-27.624,12.417-27.624,27.719,0,15.3,12.374,27.721,27.624,27.718,15.24,0,27.594-12.416,27.594-27.718s-12.356-27.719-27.594-27.719zm41.75,0.531l-14.718,8.531,2.218,3.907,14.719-8.532-2.219-3.906zm-91.812,23.688v4.468h17v-4.468h-17zm83,0.25v4.5h17v-4.5h-17zm-63.594,15.687l-14.406,9.031,2.3438,3.813,14.406-9.063-2.344-3.781zm60.5,0.969l-2.187,3.906,14.875,8.281,2.187-3.937-14.875-8.25zm-11.312,13.625l-3.875,2.219,8.5,14.781,3.875-2.25-8.5-14.75zm-37.156,0.093l-8.25,14.938,3.906,2.156,8.25-14.937-3.906-2.157zm16.093,5.876v17.062h4.469v-17.062h-4.469z"/>
<path id="tstorms" d="M51.312,3.5625c-13.094,0-23.718,10.63-23.718,23.718,0,0.296,0.08,0.548,0.094,0.844-0.296-0.02-0.58-0.063-0.876-0.063-7.044,0-12.75,5.706-12.75,12.75,0,0.088,0.032,0.164,0.032,0.25-1.008-0.302-2.054-0.5-3.156-0.5-6.0435,0-10.938,4.901-10.938,10.938,0,6.043,4.8945,8.312,10.938,8.312h70.312c10.358,0,18.75-8.39,18.75-18.75,0-10.358-8.391-18.75-18.75-18.75-2.34,0-4.568,0.502-6.625,1.282-1.788-11.321-11.495-20.032-23.313-20.032zm-4.593,58.656l-11.969,20.531h8.562l-6.843,13.688,20.531-20.532h-10.281l8.562-13.687h-8.562zm-23.25,3.781l-9.031,24.812,1.937,0.719,9.313-25.531h-2.219zm10.343,0l-9.031,24.812,1.938,0.719,9.281-25.531h-2.188zm30.969,0l-9.031,24.812,1.938,0.719,9.281-25.531h-2.188zm10.313,0l-9,24.812,1.937,0.719,9.281-25.531h-2.218z"/>
<path id="wind" d="M62.781,0.0062768c-1.621,0.18889-7.737,6.4392-19.093,25.311,3.0187,0.032,5.663,1.6919,7.0938,4.1247,11.41-20.557,13.346-28.772,12.25-29.404-0.0685-0.039435-0.14194-0.043841-0.25-0.031248zm-19.187,29.467c-2.2942,0-4.1562,1.8647-4.1562,4.156s1.862,4.156,4.1562,4.156,4.1562-1.8647,4.1562-4.156-1.862-4.156-4.1562-4.156zm-7.2188,0.0625c-23.477,0.41497-31.531,2.8316-31.531,4.0935,0,1.2609,8.0532,3.6795,31.531,4.0935-0.68785-1.2069-1.0938-2.6066-1.0938-4.0935,0-1.4859,0.40594-2.8856,1.0938-4.0935zm14.406,8.2495c-1.4238,2.4358-4.0448,4.0887-7.0625,4.1247,12.105,20.107,18.216,25.878,19.312,25.248,1.0943-0.63196-0.84705-8.8283-12.25-29.373zm-50.468,2.062c-0.063218-0.0073-0.11601,0.0082-0.15625,0.03125-0.6438,0.373,0.50625,5.156,7.0312,16.999,0.9162-1.38,2.4383-2.304,4.1875-2.438-6.5661-10.832-10.114-14.483-11.062-14.592zm65.062,0c-0.06321-0.0073-0.11601,0.0082-0.15625,0.03125-0.643,0.37298,0.50625,5.1567,7.0312,16.999,0.9172-1.3799,2.4393-2.3034,4.1875-2.4373-6.566-10.833-10.113-14.484-11.061-14.593zm-25.938,3.0311,0,57.121,8.3125,0,0-43.935c-2.379-3.518-5.134-7.856-8.31-13.186zm-27.655,14.28c-1.5295,0-2.75,1.2223-2.75,2.7498s1.2205,2.7811,2.75,2.7811,2.7812-1.2536,2.7812-2.7811-1.2518-2.7498-2.7812-2.7498zm65.094,0c-1.5295,0-2.7812,1.2223-2.7812,2.7498s1.2518,2.7811,2.7812,2.7811c1.5295,0,2.7812-1.2536,2.7812-2.7811s-1.2518-2.7498-2.7812-2.7498zm-60.125,0.344c0.35844,0.73095,0.59375,1.5372,0.59375,2.4061,0,0.87594-0.2293,1.7014-0.59375,2.4373,13.471-0.28298,18.156-1.6671,18.156-2.4061,0-0.74195-4.6902-2.1544-18.156-2.4373zm65.094,0c0.35744,0.73095,0.5625,1.5372,0.5625,2.4061,0,0.87594-0.20306,1.7014-0.5625,2.4373,13.471-0.283,18.156-1.667,18.156-2.406,0-0.742-4.69-2.154-18.156-2.437zm-74.656,5.468c-6.523,11.842-7.675,16.627-7.0312,16.999,0.644,0.371,4.2152-3.01,11.219-14.562-1.7502-0.135-3.2694-1.056-4.1875-2.437zm65.062,0c-6.524,11.842-7.675,16.623-7.031,16.999,0.643,0.37,4.216-3.007,11.219-14.562-1.752-0.135-3.27-1.056-4.188-2.437zm-57.688,2.5311c-2.15,3.6138-3.9764,6.4613-5.5312,8.7182l-0.0308,25.78h5.5312l0.03125-34.498zm65.094,0c-2.1496,3.6137-4.0086,6.4613-5.5625,8.7182v25.78h5.5312l0.03125-34.498z"/>
    </defs>

    <g transform="translate(-100 -100) rotate(90 300 400)"
       font-family="DejaVu Sans" style="text-anchor:middle;">
        <g >
           <text font-size="40px" x="200" y="40">
           $TIME
           </text>
           <text font-size="40px" x="200" y="90">
           AQI: $AQI
           </text>
           <use xlink:href="#$I0" height="325" width="325" 
                transform="scale(3.25) translate(10 40)"
                />
           <text font-size="60px" x="180" y="570" style="text-anchor:end;">
           $H0°C
           </text>
           <text font-size="60px" x="370" y="570" style="text-anchor:end;">
           $L0°C
           </text>
        </g>
        <g transform="translate(400, 0)">
            <text font-size="30px" x="200" y="25">
            $D1
            </text>
            <use xlink:href="#$I1" height="175" width="175" 
                 transform="scale(1.75) translate(0 0)"
                 />
            <text font-size="60px" x="370" y="100" style="text-anchor:end;">
            $H1°C
            </text>
            <text font-size="60px" x="370" y="170" style="text-anchor:end;">
            $L1°C
            </text>
        </g>
        <g transform="translate(400, 200)">
            <text font-size="30px" x="200" y="25">
            $D2
            </text>
            <use xlink:href="#$I2" height="150" width="150" 
                 transform="scale(1.75) translate(0 0)"
                 />
            <text font-size="60px" x="370" y="100" style="text-anchor:end;">
            $H2°C
            </text>
            <text font-size="60px" x="370" y="170" style="text-anchor:end;">
            $L2°C
            </text>
        </g>
        <g transform="translate(400, 400)">
            <text font-size="30px" x="200" y="25">
            $D3
            </text>
            <use xlink:href="#$I3" height="175" width="175" 
                 transform="scale(1.75) translate(0 0)"
                 />
            <text font-size="60px" x="370" y="100" style="text-anchor:end;">
            $H3°C
            </text>
            <text font-size="60px" x="370" y="170" style="text-anchor:end;">
            $L3°C
            </text>
        </g>
    </g>
</svg>
